# xmcd
#
# Track frame offsets:
#	150
#	17289
#	39883
#	58452
#	78975
#	95523
#	102149
#	121181
#	141526
#	155009
#	169575
#
# Disc length: 2564 seconds
#
# Revision: 118939817
# Processed by: cddbd v1.5.2PL0 Copyright (c) Steve Scherf et al.
# Submitted via: EZCDAudioConverter 8.0.7.1
#
DISCID=860a020b
DTITLE=Sugarland - The Incredible Machine
DYEAR=2010
DGENRE=Country
TTITLE0=All We Are
TTITLE1=Incredible Machine
TTITLE2=Stuck Like Glue
TTITLE3=Tonight
TTITLE4=Stand Up
TTITLE5=Incredible Machine (Interlude)
TTITLE6=Every Girl Like Me
TTITLE7=Little Miss
TTITLE8=Find The Beat Again
TTITLE9=Wide Open
TTITLE10=Shine The Light
EXTD=
EXTT0=
EXTT1=
EXTT2=
EXTT3=
EXTT4=
EXTT5=
EXTT6=
EXTT7=
EXTT8=
EXTT9=
EXTT10=
PLAYORDER=
